<mxfile host="app.diagrams.net" modified="2022-09-18T02:08:50.111Z" agent="5.0 (Windows NT 6.1; Win64; x64) AppleWebKit/537.36 (KHTML, like Gecko) Chrome/100.0.4896.127 Safari/537.36" etag="qy37TpF1SNkrX1f3PetB" version="20.3.2" type="github">
  <diagram id="EEWpYUk2irftNLygyGdg" name="第 1 页">
    <mxGraphModel dx="1422" dy="800" grid="1" gridSize="10" guides="1" tooltips="1" connect="1" arrows="1" fold="1" page="1" pageScale="1" pageWidth="400000" pageHeight="300000" math="0" shadow="0">
      <root>
        <mxCell id="0" />
        <mxCell id="1" parent="0" />
        <mxCell id="KM6D4PZQJ1-9kusRCj2R-17" value="" style="rounded=1;whiteSpace=wrap;html=1;dashed=1;" vertex="1" parent="1">
          <mxGeometry x="330" y="240" width="540" height="90" as="geometry" />
        </mxCell>
        <mxCell id="KM6D4PZQJ1-9kusRCj2R-16" value="" style="rounded=1;whiteSpace=wrap;html=1;dashed=1;" vertex="1" parent="1">
          <mxGeometry x="330" y="350" width="540" height="180" as="geometry" />
        </mxCell>
        <mxCell id="KM6D4PZQJ1-9kusRCj2R-15" value="" style="rounded=1;whiteSpace=wrap;html=1;dashed=1;" vertex="1" parent="1">
          <mxGeometry x="330" y="540" width="540" height="110" as="geometry" />
        </mxCell>
        <mxCell id="KM6D4PZQJ1-9kusRCj2R-1" value="人生、思维、算法" style="ellipse;whiteSpace=wrap;html=1;" vertex="1" parent="1">
          <mxGeometry x="540" y="140" width="120" height="80" as="geometry" />
        </mxCell>
        <mxCell id="KM6D4PZQJ1-9kusRCj2R-2" value="算法思想" style="rounded=1;whiteSpace=wrap;html=1;" vertex="1" parent="1">
          <mxGeometry x="700" y="560" width="120" height="60" as="geometry" />
        </mxCell>
        <mxCell id="KM6D4PZQJ1-9kusRCj2R-3" value="数据结构" style="rounded=1;whiteSpace=wrap;html=1;" vertex="1" parent="1">
          <mxGeometry x="380" y="450" width="120" height="60" as="geometry" />
        </mxCell>
        <mxCell id="KM6D4PZQJ1-9kusRCj2R-4" value="刻意训练及模型补充leecode" style="rounded=1;whiteSpace=wrap;html=1;" vertex="1" parent="1">
          <mxGeometry x="570" y="360" width="250" height="60" as="geometry" />
        </mxCell>
        <mxCell id="KM6D4PZQJ1-9kusRCj2R-5" value="逻辑与边界" style="rounded=1;whiteSpace=wrap;html=1;" vertex="1" parent="1">
          <mxGeometry x="540" y="450" width="120" height="60" as="geometry" />
        </mxCell>
        <mxCell id="KM6D4PZQJ1-9kusRCj2R-6" value="工程应用" style="rounded=1;whiteSpace=wrap;html=1;" vertex="1" parent="1">
          <mxGeometry x="420" y="255" width="120" height="60" as="geometry" />
        </mxCell>
        <mxCell id="KM6D4PZQJ1-9kusRCj2R-7" value="人工智能" style="rounded=1;whiteSpace=wrap;html=1;" vertex="1" parent="1">
          <mxGeometry x="645" y="255" width="120" height="60" as="geometry" />
        </mxCell>
        <mxCell id="KM6D4PZQJ1-9kusRCj2R-9" value="精进" style="ellipse;whiteSpace=wrap;html=1;" vertex="1" parent="1">
          <mxGeometry x="555" y="660" width="90" height="50" as="geometry" />
        </mxCell>
        <mxCell id="KM6D4PZQJ1-9kusRCj2R-10" value="是什么" style="rounded=1;whiteSpace=wrap;html=1;" vertex="1" parent="1">
          <mxGeometry x="380" y="560" width="120" height="60" as="geometry" />
        </mxCell>
        <mxCell id="KM6D4PZQJ1-9kusRCj2R-12" value="可行性(复杂度)" style="rounded=1;whiteSpace=wrap;html=1;" vertex="1" parent="1">
          <mxGeometry x="700" y="450" width="120" height="60" as="geometry" />
        </mxCell>
        <mxCell id="KM6D4PZQJ1-9kusRCj2R-13" value="基础数学" style="rounded=1;whiteSpace=wrap;html=1;" vertex="1" parent="1">
          <mxGeometry x="540" y="560" width="120" height="60" as="geometry" />
        </mxCell>
        <mxCell id="KM6D4PZQJ1-9kusRCj2R-14" value="分类" style="rounded=1;whiteSpace=wrap;html=1;" vertex="1" parent="1">
          <mxGeometry x="380" y="360" width="120" height="60" as="geometry" />
        </mxCell>
      </root>
    </mxGraphModel>
  </diagram>
</mxfile>
